<svg xmlns="http://www.w3.org/2000/svg" viewBox="0 0 600 400" width="600" height="400">
  <rect width="600" height="400" fill="#ffffff"/>
  <!-- Nav solid white -->
  <rect x="0" y="0" width="600" height="48" fill="#ffffff"/>
  <rect x="0" y="47" width="600" height="1" fill="#1e40af" opacity="0.1"/>
  <rect x="32" y="17" width="72" height="11" rx="2" fill="#1e40af"/>
  <rect x="200" y="20" width="44" height="7" rx="2" fill="#1e40af" opacity="0.3"/>
  <rect x="260" y="20" width="44" height="7" rx="2" fill="#1e40af" opacity="0.3"/>
  <rect x="320" y="20" width="44" height="7" rx="2" fill="#1e40af" opacity="0.3"/>
  <rect x="480" y="16" width="88" height="16" rx="3" fill="#0891b2"/>
  <!-- Hero blue band -->
  <rect x="0" y="48" width="600" height="180" fill="#1e40af"/>
  <rect x="32" y="76" width="24" height="8" rx="2" fill="#0891b2" opacity="0.7"/>
  <rect x="32" y="94" width="300" height="24" rx="2" fill="white" opacity="0.95"/>
  <rect x="32" y="128" width="220" height="16" rx="2" fill="white" opacity="0.5"/>
  <rect x="32" y="154" width="160" height="12" rx="2" fill="white" opacity="0.3"/>
  <rect x="32" y="180" width="120" height="32" rx="3" fill="#0891b2"/>
  <rect x="164" y="188" width="80" height="14" rx="2" fill="white" opacity="0.2"/>
  <!-- Trust badges -->
  <rect x="420" y="80" width="148" height="120" rx="6" fill="white" opacity="0.1"/>
  <rect x="436" y="96" width="116" height="10" rx="2" fill="white" opacity="0.6"/>
  <rect x="436" y="116" width="96" height="8" rx="2" fill="white" opacity="0.35"/>
  <rect x="436" y="132" width="106" height="8" rx="2" fill="white" opacity="0.35"/>
  <rect x="436" y="148" width="86" height="8" rx="2" fill="white" opacity="0.35"/>
  <!-- Stats -->
  <rect x="0" y="228" width="600" height="60" fill="#0891b2" opacity="0.1"/>
  <rect x="56" y="245" width="56" height="12" rx="2" fill="#1e40af" opacity="0.7"/>
  <rect x="56" y="264" width="44" height="8" rx="2" fill="#1e40af" opacity="0.3"/>
  <rect x="220" y="245" width="56" height="12" rx="2" fill="#1e40af" opacity="0.7"/>
  <rect x="220" y="264" width="44" height="8" rx="2" fill="#1e40af" opacity="0.3"/>
  <rect x="384" y="245" width="56" height="12" rx="2" fill="#1e40af" opacity="0.7"/>
  <rect x="384" y="264" width="44" height="8" rx="2" fill="#1e40af" opacity="0.3"/>
  <!-- Services grid -->
  <rect x="32" y="308" width="166" height="72" rx="4" fill="#1e40af" opacity="0.05"/>
  <rect x="48" y="320" width="60" height="8" rx="2" fill="#0891b2" opacity="0.6"/>
  <rect x="48" y="336" width="120" height="6" rx="2" fill="#1e40af" opacity="0.2"/>
  <rect x="48" y="350" width="100" height="6" rx="2" fill="#1e40af" opacity="0.15"/>
  <rect x="216" y="308" width="166" height="72" rx="4" fill="#1e40af" opacity="0.05"/>
  <rect x="232" y="320" width="60" height="8" rx="2" fill="#0891b2" opacity="0.6"/>
  <rect x="232" y="336" width="120" height="6" rx="2" fill="#1e40af" opacity="0.2"/>
  <rect x="232" y="350" width="100" height="6" rx="2" fill="#1e40af" opacity="0.15"/>
  <rect x="400" y="308" width="166" height="72" rx="4" fill="#1e40af" opacity="0.05"/>
  <rect x="416" y="320" width="60" height="8" rx="2" fill="#0891b2" opacity="0.6"/>
  <rect x="416" y="336" width="120" height="6" rx="2" fill="#1e40af" opacity="0.2"/>
  <rect x="416" y="350" width="100" height="6" rx="2" fill="#1e40af" opacity="0.15"/>
</svg>