<svg xmlns="http://www.w3.org/2000/svg" viewBox="0 0 600 400" width="600" height="400">
  <defs>
    <linearGradient id="agrad" x1="0" y1="0" x2="1" y2="1">
      <stop offset="0%" stop-color="#b45309" stop-opacity="0.08"/>
      <stop offset="100%" stop-color="#fffbf0" stop-opacity="0"/>
    </linearGradient>
  </defs>
  <rect width="600" height="400" fill="#fffbf0"/>
  <rect width="600" height="400" fill="url(#agrad)"/>
  <!-- Transparent nav -->
  <rect x="32" y="14" width="72" height="12" rx="2" fill="#78350f" opacity="0.85"/>
  <rect x="460" y="16" width="44" height="8" rx="2" fill="#78350f" opacity="0.3"/>
  <rect x="516" y="12" width="60" height="16" rx="3" fill="#b45309"/>
  <!-- Split hero -->
  <rect x="32" y="56" width="260" height="32" rx="2" fill="#78350f" opacity="0.88"/>
  <rect x="32" y="100" width="200" height="18" rx="2" fill="#78350f" opacity="0.4"/>
  <rect x="32" y="128" width="150" height="12" rx="2" fill="#78350f" opacity="0.25"/>
  <!-- Floating artisan badge -->
  <rect x="32" y="156" width="90" height="26" rx="13" fill="#b45309"/>
  <rect x="134" y="160" width="80" height="16" rx="3" fill="#78350f" opacity="0.15"/>
  <!-- Right hero image -->
  <rect x="320" y="40" width="256" height="200" rx="8" fill="#b45309" opacity="0.12"/>
  <rect x="340" y="60" width="100" height="100" rx="4" fill="#78350f" opacity="0.08"/>
  <rect x="452" y="60" width="100" height="44" rx="4" fill="#b45309" opacity="0.15"/>
  <rect x="452" y="114" width="100" height="44" rx="4" fill="#78350f" opacity="0.06"/>
  <!-- Story strip (2 col) -->
  <rect x="0" y="264" width="600" height="4" fill="#b45309" opacity="0.4"/>
  <rect x="32" y="280" width="260" height="100" rx="4" fill="#78350f" opacity="0.04"/>
  <rect x="48" y="296" width="180" height="12" rx="2" fill="#78350f" opacity="0.5"/>
  <rect x="48" y="316" width="220" height="8" rx="2" fill="#78350f" opacity="0.2"/>
  <rect x="48" y="332" width="200" height="8" rx="2" fill="#78350f" opacity="0.15"/>
  <rect x="48" y="348" width="170" height="8" rx="2" fill="#78350f" opacity="0.15"/>
  <!-- Product grid -->
  <rect x="308" y="280" width="124" height="100" rx="6" fill="#b45309" opacity="0.1"/>
  <rect x="320" y="292" width="100" height="60" rx="4" fill="#b45309" opacity="0.2"/>
  <rect x="320" y="358" width="80" height="8" rx="2" fill="#78350f" opacity="0.35"/>
  <rect x="444" y="280" width="124" height="100" rx="6" fill="#b45309" opacity="0.08"/>
  <rect x="456" y="292" width="100" height="60" rx="4" fill="#78350f" opacity="0.08"/>
  <rect x="456" y="358" width="80" height="8" rx="2" fill="#78350f" opacity="0.35"/>
</svg>