<svg xmlns="http://www.w3.org/2000/svg" viewBox="0 0 600 400" width="600" height="400">
  <defs>
    <linearGradient id="cgrad" x1="0" y1="1" x2="0" y2="0">
      <stop offset="0%" stop-color="#ec4899" stop-opacity="0.12"/>
      <stop offset="100%" stop-color="#09090b" stop-opacity="0"/>
    </linearGradient>
  </defs>
  <rect width="600" height="400" fill="#09090b"/>
  <rect width="600" height="400" fill="url(#cgrad)"/>
  <!-- Absolute nav -->
  <rect x="32" y="18" width="72" height="10" rx="2" fill="#fafafa" opacity="0.8"/>
  <rect x="400" y="20" width="36" height="7" rx="2" fill="#fafafa" opacity="0.3"/>
  <rect x="448" y="20" width="36" height="7" rx="2" fill="#fafafa" opacity="0.3"/>
  <rect x="496" y="20" width="36" height="7" rx="2" fill="#fafafa" opacity="0.3"/>
  <rect x="544" y="16" width="40" height="14" rx="2" fill="#ec4899"/>
  <!-- Full-screen hero text bottom-left -->
  <rect x="32" y="140" width="360" height="36" rx="2" fill="#fafafa" opacity="0.92"/>
  <rect x="32" y="188" width="260" height="18" rx="2" fill="#fafafa" opacity="0.35"/>
  <rect x="32" y="218" width="100" height="28" rx="3" fill="#ec4899"/>
  <!-- Accent accent line -->
  <rect x="0" y="256" width="600" height="3" fill="#ec4899" opacity="0.5"/>
  <!-- Stats strip -->
  <rect x="0" y="259" width="600" height="52" fill="#fafafa" opacity="0.04"/>
  <rect x="40" y="275" width="60" height="10" rx="2" fill="#ec4899" opacity="0.85"/>
  <rect x="40" y="291" width="50" height="7" rx="2" fill="#fafafa" opacity="0.3"/>
  <rect x="220" y="275" width="60" height="10" rx="2" fill="#ec4899" opacity="0.85"/>
  <rect x="220" y="291" width="50" height="7" rx="2" fill="#fafafa" opacity="0.3"/>
  <rect x="400" y="275" width="60" height="10" rx="2" fill="#ec4899" opacity="0.85"/>
  <rect x="400" y="291" width="50" height="7" rx="2" fill="#fafafa" opacity="0.3"/>
  <!-- Work list (magazine rows) -->
  <rect x="32" y="328" width="536" height="1" fill="#fafafa" opacity="0.12"/>
  <rect x="32" y="340" width="200" height="10" rx="2" fill="#fafafa" opacity="0.7"/>
  <rect x="32" y="356" width="140" height="7" rx="2" fill="#fafafa" opacity="0.25"/>
  <rect x="480" y="335" width="88" height="26" rx="3" fill="#ec4899" opacity="0.2"/>
  <!-- Second row -->
  <rect x="32" y="386" width="536" height="1" fill="#fafafa" opacity="0.08"/>
  <rect x="32" y="396" width="160" height="10" rx="2" fill="#fafafa" opacity="0.5"/>
  <!-- Gallery: top-right mosaic -->
  <rect x="360" y="40" width="108" height="80" rx="4" fill="#ec4899" opacity="0.12"/>
  <rect x="480" y="40" width="88" height="36" rx="4" fill="#fafafa" opacity="0.07"/>
  <rect x="480" y="84" width="88" height="36" rx="4" fill="#ec4899" opacity="0.1"/>
  <rect x="360" y="130" width="208" height="36" rx="4" fill="#fafafa" opacity="0.05"/>
</svg>