<svg xmlns="http://www.w3.org/2000/svg" viewBox="0 0 600 400" width="600" height="400">
  <rect width="600" height="400" fill="#050505"/>
  <!-- Nav -->
  <rect x="32" y="18" width="68" height="10" rx="2" fill="#f5f5f5" opacity="0.9"/>
  <rect x="460" y="20" width="44" height="7" rx="2" fill="#f5f5f5" opacity="0.3"/>
  <rect x="516" y="16" width="60" height="14" rx="3" fill="#22d3ee"/>
  <!-- Full-screen hero -->
  <rect x="0" y="0" width="600" height="H" fill="#050505"/>
  <!-- Accent diagonal / gradient block -->
  <rect x="0" y="180" width="600" height="4" fill="#22d3ee" opacity="0.6"/>
  <rect x="0" y="56" width="300" height="124" fill="#22d3ee" opacity="0.07"/>
  <!-- Hero text bottom-left -->
  <rect x="32" y="120" width="280" height="30" rx="2" fill="#f5f5f5" opacity="0.9"/>
  <rect x="32" y="162" width="200" height="16" rx="2" fill="#f5f5f5" opacity="0.4"/>
  <rect x="32" y="188" width="100" height="28" rx="3" fill="#22d3ee"/>
  <!-- Right side image grid -->
  <rect x="340" y="56" width="228" height="124" rx="4" fill="#f5f5f5" opacity="0.06"/>
  <rect x="356" y="72" width="90" height="90" rx="3" fill="#22d3ee" opacity="0.15"/>
  <rect x="460" y="72" width="90" height="40" rx="3" fill="#f5f5f5" opacity="0.08"/>
  <rect x="460" y="120" width="90" height="40" rx="3" fill="#22d3ee" opacity="0.1"/>
  <!-- Stats strip -->
  <rect x="0" y="228" width="600" height="56" fill="#22d3ee" opacity="0.15"/>
  <rect x="48" y="244" width="60" height="12" rx="2" fill="#22d3ee" opacity="0.9"/>
  <rect x="48" y="262" width="44" height="7" rx="2" fill="#f5f5f5" opacity="0.4"/>
  <rect x="220" y="244" width="60" height="12" rx="2" fill="#22d3ee" opacity="0.9"/>
  <rect x="220" y="262" width="44" height="7" rx="2" fill="#f5f5f5" opacity="0.4"/>
  <rect x="392" y="244" width="60" height="12" rx="2" fill="#22d3ee" opacity="0.9"/>
  <rect x="392" y="262" width="44" height="7" rx="2" fill="#f5f5f5" opacity="0.4"/>
  <!-- Work / program cards -->
  <rect x="32" y="302" width="264" height="80" rx="4" fill="#f5f5f5" opacity="0.05"/>
  <rect x="48" y="314" width="32" height="32" rx="2" fill="#22d3ee" opacity="0.25"/>
  <rect x="92" y="316" width="140" height="10" rx="2" fill="#f5f5f5" opacity="0.6"/>
  <rect x="92" y="334" width="100" height="7" rx="2" fill="#f5f5f5" opacity="0.25"/>
  <rect x="92" y="348" width="80" height="7" rx="2" fill="#f5f5f5" opacity="0.2"/>
  <rect x="308" y="302" width="260" height="80" rx="4" fill="#f5f5f5" opacity="0.05"/>
  <rect x="324" y="314" width="32" height="32" rx="2" fill="#22d3ee" opacity="0.25"/>
  <rect x="368" y="316" width="140" height="10" rx="2" fill="#f5f5f5" opacity="0.6"/>
  <rect x="368" y="334" width="100" height="7" rx="2" fill="#f5f5f5" opacity="0.25"/>
  <rect x="368" y="348" width="80" height="7" rx="2" fill="#f5f5f5" opacity="0.2"/>
</svg>