<svg xmlns="http://www.w3.org/2000/svg" viewBox="0 0 600 400" width="600" height="400">
  <defs>
    <linearGradient id="wgrad" x1="0" y1="0" x2="1" y2="1">
      <stop offset="0%" stop-color="#86efac" stop-opacity="0.15"/>
      <stop offset="100%" stop-color="#f0fdf4" stop-opacity="0"/>
    </linearGradient>
  </defs>
  <rect width="600" height="400" fill="#f0fdf4"/>
  <rect width="600" height="400" fill="url(#wgrad)"/>
  <!-- Nav -->
  <rect x="0" y="0" width="600" height="48" fill="#f0fdf4" opacity="0.95"/>
  <rect x="0" y="47" width="600" height="1" fill="#15803d" opacity="0.08"/>
  <rect x="32" y="16" width="80" height="12" rx="2" fill="#15803d" opacity="0.8"/>
  <rect x="470" y="18" width="44" height="8" rx="2" fill="#15803d" opacity="0.25"/>
  <rect x="524" y="15" width="56" height="16" rx="8" fill="#15803d"/>
  <!-- Split hero: left text, right image -->
  <rect x="32" y="72" width="240" height="24" rx="2" fill="#15803d" opacity="0.85"/>
  <rect x="32" y="106" width="180" height="16" rx="2" fill="#15803d" opacity="0.4"/>
  <rect x="32" y="130" width="140" height="12" rx="2" fill="#15803d" opacity="0.25"/>
  <rect x="32" y="158" width="120" height="34" rx="17" fill="#15803d"/>
  <rect x="164" y="164" width="70" height="12" rx="2" fill="#15803d" opacity="0.15"/>
  <!-- Right: image + floating badge -->
  <rect x="320" y="56" width="256" height="180" rx="12" fill="#86efac" opacity="0.15"/>
  <rect x="340" y="76" width="216" height="140" rx="8" fill="#15803d" opacity="0.08"/>
  <!-- Floating badge -->
  <rect x="400" y="196" width="100" height="44" rx="8" fill="#f0fdf4"/>
  <rect x="412" y="208" width="76" height="8" rx="2" fill="#15803d" opacity="0.5"/>
  <rect x="412" y="222" width="50" height="8" rx="2" fill="#86efac" opacity="0.9"/>
  <!-- Stats strip -->
  <rect x="0" y="258" width="600" height="56" fill="#15803d" opacity="0.06"/>
  <rect x="56" y="274" width="56" height="10" rx="2" fill="#15803d" opacity="0.6"/>
  <rect x="56" y="290" width="44" height="7" rx="2" fill="#15803d" opacity="0.25"/>
  <rect x="232" y="274" width="56" height="10" rx="2" fill="#15803d" opacity="0.6"/>
  <rect x="232" y="290" width="44" height="7" rx="2" fill="#15803d" opacity="0.25"/>
  <rect x="408" y="274" width="56" height="10" rx="2" fill="#15803d" opacity="0.6"/>
  <rect x="408" y="290" width="44" height="7" rx="2" fill="#15803d" opacity="0.25"/>
  <!-- Service cards -->
  <rect x="24" y="330" width="172" height="56" rx="8" fill="#15803d" opacity="0.06"/>
  <rect x="40" y="342" width="80" height="8" rx="2" fill="#86efac" opacity="0.7"/>
  <rect x="40" y="356" width="120" height="6" rx="2" fill="#15803d" opacity="0.2"/>
  <rect x="208" y="330" width="172" height="56" rx="8" fill="#15803d" opacity="0.06"/>
  <rect x="224" y="342" width="80" height="8" rx="2" fill="#86efac" opacity="0.7"/>
  <rect x="224" y="356" width="120" height="6" rx="2" fill="#15803d" opacity="0.2"/>
  <rect x="392" y="330" width="172" height="56" rx="8" fill="#15803d" opacity="0.06"/>
  <rect x="408" y="342" width="80" height="8" rx="2" fill="#86efac" opacity="0.7"/>
  <rect x="408" y="356" width="120" height="6" rx="2" fill="#15803d" opacity="0.2"/>
</svg>