<svg xmlns="http://www.w3.org/2000/svg" viewBox="0 0 600 400" width="600" height="400">
  <rect width="600" height="400" fill="#fffbf5"/>
  <!-- Full hero image placeholder -->
  <rect x="0" y="0" width="600" height="220" fill="#7c2d12" opacity="0.15"/>
  <rect x="0" y="0" width="600" height="220" fill="url(#grad-warm)"/>
  <defs>
    <linearGradient id="grad-warm" x1="0" y1="1" x2="0" y2="0">
      <stop offset="0%" stop-color="#7c2d12" stop-opacity="0.7"/>
      <stop offset="100%" stop-color="#7c2d12" stop-opacity="0.1"/>
    </linearGradient>
  </defs>
  <!-- Nav overlay -->
  <rect x="32" y="16" width="72" height="10" rx="2" fill="white" opacity="0.9"/>
  <rect x="460" y="18" width="44" height="7" rx="2" fill="white" opacity="0.5"/>
  <rect x="516" y="14" width="60" height="14" rx="3" fill="#d97706"/>
  <!-- Hero text -->
  <rect x="32" y="100" width="320" height="28" rx="2" fill="white" opacity="0.95"/>
  <rect x="32" y="138" width="220" height="16" rx="2" fill="white" opacity="0.6"/>
  <rect x="32" y="164" width="110" height="30" rx="3" fill="#d97706"/>
  <!-- Menu section -->
  <rect x="0" y="220" width="600" height="12" fill="#d97706" opacity="0.9"/>
  <!-- Cards -->
  <rect x="24" y="248" width="168" height="120" rx="6" fill="#7c2d12" opacity="0.06"/>
  <rect x="36" y="260" width="144" height="56" rx="4" fill="#d97706" opacity="0.2"/>
  <rect x="36" y="324" width="100" height="8" rx="2" fill="#7c2d12" opacity="0.5"/>
  <rect x="36" y="340" width="60" height="8" rx="2" fill="#d97706" opacity="0.7"/>
  <rect x="208" y="248" width="168" height="120" rx="6" fill="#7c2d12" opacity="0.06"/>
  <rect x="220" y="260" width="144" height="56" rx="4" fill="#d97706" opacity="0.2"/>
  <rect x="220" y="324" width="100" height="8" rx="2" fill="#7c2d12" opacity="0.5"/>
  <rect x="220" y="340" width="60" height="8" rx="2" fill="#d97706" opacity="0.7"/>
  <rect x="392" y="248" width="180" height="120" rx="6" fill="#7c2d12" opacity="0.06"/>
  <rect x="404" y="260" width="156" height="56" rx="4" fill="#d97706" opacity="0.2"/>
  <rect x="404" y="324" width="100" height="8" rx="2" fill="#7c2d12" opacity="0.5"/>
  <rect x="404" y="340" width="60" height="8" rx="2" fill="#d97706" opacity="0.7"/>
</svg>